<svg xmlns="http://www.w3.org/2000/svg" xmlns:xlink="http://www.w3.org/1999/xlink" width="1080" zoomAndPan="magnify" viewBox="0 0 810 809.999993" height="1080" preserveAspectRatio="xMidYMid meet" version="1.2"><defs><clipPath id="95ea5df055"><path d="M 79.804688 79.804688 L 730.054688 79.804688 L 730.054688 730.054688 L 79.804688 730.054688 Z M 79.804688 79.804688 "/></clipPath></defs><g id="496d2863e6"><g clip-rule="nonzero" clip-path="url(#95ea5df055)"><path style=" stroke:none;fill-rule:nonzero;fill:#ffffff;fill-opacity:1;" d="M 404.929688 79.804688 C 225.375 79.804688 79.804688 225.375 79.804688 404.929688 C 79.804688 584.484375 225.375 730.054688 404.929688 730.054688 C 584.484375 730.054688 730.054688 584.484375 730.054688 404.929688 C 730.054688 225.375 584.484375 79.804688 404.929688 79.804688 Z M 533.332031 521.800781 C 520.976562 537.925781 505.371094 550.238281 487.035156 558.429688 C 468.609375 566.667969 444.679688 570.871094 415.894531 570.871094 C 380.914062 570.871094 352 565.757812 329.976562 555.65625 C 308.171875 545.644531 289.054688 527.738281 273.101562 502.421875 C 257.148438 477.0625 249.042969 443.988281 249.042969 404.148438 C 249.042969 351.132812 263.261719 309.90625 291.265625 281.597656 C 319.269531 253.332031 359.585938 238.984375 411.171875 238.984375 C 451.53125 238.984375 483.609375 247.179688 506.496094 263.347656 C 528.304688 278.78125 545.035156 302.492188 556.21875 333.921875 L 474.9375 352 C 471.992188 343.328125 468.957031 336.957031 465.617188 332.492188 C 459.550781 324.210938 452.007812 317.707031 443.207031 313.242188 C 434.40625 308.777344 424.4375 306.480469 413.597656 306.480469 C 389.105469 306.480469 370.03125 316.496094 356.984375 336.261719 C 347.273438 350.65625 342.332031 373.285156 342.332031 403.5 C 342.332031 441.386719 348.097656 466.832031 359.929688 481.3125 C 371.808594 495.832031 388.671875 503.203125 410 503.203125 C 431.328125 503.203125 446.589844 497.222656 457.339844 485.386719 C 467.007812 474.765625 474.289062 459.636719 479.015625 440.347656 L 559.816406 464.75 C 553.964844 487.335938 545.035156 506.496094 533.289062 521.84375 Z M 533.332031 521.800781 "/></g></g></svg>